<svg width="120" height="35" viewBox="0 0 120 35" fill="none" xmlns="http://www.w3.org/2000/svg">
<g clip-path="url(#clip0_6039_671)">
<path d="M0 10.9479V34.4631H4.14643V24.7266H13.0596V20.5535H4.14643V15.1341H13.7979V10.9479H0Z" fill="white"/>
<path d="M21.9023 10.9479H17.7559V34.4631H21.9023V10.9479Z" fill="white"/>
<mask id="mask0_6039_671" style="mask-type:luminance" maskUnits="userSpaceOnUse" x="0" y="0" width="120" height="35">
<path d="M120 0H0V35H120V0Z" fill="white"/>
</mask>
<g mask="url(#mask0_6039_671)">
<path d="M42.3326 18.3316C42.3326 14.0526 39.1183 10.9468 34.6847 10.9468H25.8594V34.462H30.0058V25.6803H33.5812L38.7326 34.4631H43.539L37.9912 25.0168C39.2922 24.4783 40.403 23.5517 41.1778 22.3586C41.9526 21.1656 42.3551 19.7618 42.3326 18.3316ZM38.1712 18.3239C38.162 18.7735 38.0613 19.2163 37.8755 19.6242C37.6897 20.0322 37.4228 20.3964 37.0917 20.6939C36.7606 20.9913 36.3724 21.2155 35.9519 21.3524C35.5313 21.4892 35.0874 21.5356 34.6483 21.4887H30.0058V15.1341H34.6494C35.0903 15.0884 35.5356 15.1364 35.9573 15.2753C36.379 15.4141 36.7678 15.6406 37.099 15.9405C37.4302 16.2404 37.6966 16.6071 37.8814 17.0174C38.0661 17.4277 38.1641 17.8726 38.1712 18.3239Z" fill="white"/>
<path d="M57.1807 10.6436C55.6136 10.6079 54.0557 10.8961 52.601 11.4908C51.1463 12.0855 49.8251 12.9743 48.717 14.1036C47.609 15.2329 46.7372 16.5792 46.1542 18.0612C45.5713 19.5433 45.2893 21.1303 45.3253 22.7264C45.355 25.9092 46.6172 28.9513 48.8374 31.1913C51.0576 33.4312 54.0562 34.6879 57.1812 34.6879C60.3062 34.6879 63.3049 33.4312 65.525 31.1913C67.7452 28.9513 69.0074 25.9092 69.0371 22.7264C69.0731 21.1303 68.7911 19.5433 68.2082 18.0612C67.6253 16.5792 66.7534 15.2329 65.6454 14.1036C64.5374 12.9743 63.2161 12.0855 61.7615 11.4908C60.3068 10.8961 58.7478 10.6079 57.1807 10.6436ZM64.8768 22.7264C64.8768 24.8051 64.066 26.7986 62.6229 28.2685C61.1799 29.7383 59.2226 30.5641 57.1818 30.5641C55.1409 30.5641 53.1837 29.7383 51.7406 28.2685C50.2975 26.7986 49.4868 24.8051 49.4868 22.7264C49.4868 21.6971 49.6858 20.6779 50.0725 19.727C50.4592 18.7761 51.026 17.9121 51.7406 17.1843C52.4551 16.4565 53.3034 15.8792 54.237 15.4853C55.1706 15.0914 56.1712 14.8887 57.1818 14.8887C58.1923 14.8887 59.1929 15.0914 60.1265 15.4853C61.0601 15.8792 61.9084 16.4565 62.6229 17.1843C63.3375 17.9121 63.9043 18.7761 64.291 19.727C64.6777 20.6779 64.8768 21.6971 64.8768 22.7264Z" fill="white"/>
<path d="M86.2132 11.3232V26.4584L75.3618 11.3232H72.0918V34.8385H76.2243V19.6607L87.1239 34.8385H90.3511V11.3232H86.2132Z" fill="white"/>
<path d="M119.972 21.2224C119.93 20.5012 119.847 19.783 119.724 19.0715C117.736 24.6218 113.738 24.8411 113.738 24.8411C114.059 24.3468 114.344 23.859 114.612 23.3712C114.732 23.1529 114.847 22.9347 114.955 22.7164C115.011 22.6073 115.062 22.4981 115.113 22.389C115.165 22.2799 115.227 22.1576 115.278 22.0431C121.76 7.93044 105.458 0 105.458 0C106.35 2.99213 106.091 6.2181 104.733 9.02282C103.584 10.8365 102.314 12.5674 100.931 14.2032C99.2737 16.4605 98.227 19.1213 97.8956 21.9197C97.5761 24.7297 98.2057 27.5668 99.6806 29.9637C100.605 31.4129 101.85 32.6215 103.315 33.4927C104.78 34.3639 106.426 34.8734 108.119 34.9804C109.813 35.0875 111.507 34.7891 113.067 34.1091C114.627 33.4291 116.009 32.3865 117.102 31.0648C119.245 28.271 120.271 24.7546 119.972 21.2224Z" fill="white"/>
</g>
</g>
<defs>
<clipPath id="clip0_6039_671">
<rect width="120" height="35" fill="white"/>
</clipPath>
</defs>
</svg>
