<svg width="240" height="48" viewBox="0 0 240 48" fill="none" xmlns="http://www.w3.org/2000/svg">
<path d="M125.83 22.7477C125.877 14.2809 120.282 8.638 112.198 8.638C103.685 8.638 97.5157 14.9519 97.5157 23.417C97.5157 31.8822 103.781 38.2926 112.438 38.2926C118.847 38.2926 123.965 34.8477 125.733 28.5821H119.708C118.798 31.2611 116.169 32.6481 112.724 32.6481C107.942 32.6481 104.642 29.6826 104.068 25.3784H125.59C125.733 24.4693 125.83 24.0397 125.83 22.7477ZM104.307 20.3084C105.263 16.5288 108.275 14.186 112.152 14.186C116.028 14.186 118.99 16.6253 119.564 20.3084H104.307ZM226.472 32.6465C221.69 32.6465 218.388 29.6811 217.814 25.3769H239.336C239.481 24.4678 239.576 24.0381 239.576 22.7461C239.624 14.2794 234.028 8.63644 225.946 8.63644C217.431 8.63644 211.262 14.9503 211.262 23.4155C211.262 31.8807 217.527 38.291 226.184 38.291C232.593 38.291 237.713 34.8461 239.481 28.5805H233.454C232.546 31.2596 229.914 32.6465 226.472 32.6465ZM225.898 14.1844C229.819 14.1844 232.736 16.6237 233.31 20.3068H218.053C219.011 16.5272 222.025 14.1844 225.898 14.1844ZM202.174 12.5094C199.829 10.0701 196.626 8.63488 192.895 8.63488C185.004 8.63488 178.881 14.997 178.881 23.5587C178.881 32.1204 185.195 38.2895 192.895 38.2895C196.579 38.2895 199.829 36.8542 202.174 34.4149V37.7042H208.534V0.604013H202.174V12.511V12.5094ZM193.709 32.4566C188.83 32.4566 185.338 28.7735 185.338 23.5603C185.338 18.347 188.83 14.6639 193.709 14.6639C198.587 14.6639 202.222 18.2971 202.222 23.5603C202.222 28.8234 198.682 32.4566 193.709 32.4566ZM176.705 3.72981C176.705 5.87957 175.158 7.4269 173.008 7.4269C170.858 7.4269 169.269 5.92316 169.269 3.7734C169.269 1.62363 170.816 0.0763016 173.008 0.0763016C175.2 0.0763016 176.705 1.58004 176.705 3.72981ZM169.949 9.24821H176.023V37.7073H169.949V9.24977V9.24821ZM155.864 13.8513C152.421 13.8513 151.798 16.0509 151.798 17.1032C151.798 18.5384 152.899 19.4942 155.911 20.2601L159.354 21.1692C164.616 22.6045 167.055 25.187 167.055 29.2997C167.007 34.6562 162.751 38.291 156.724 38.291C150.696 38.291 145.771 35.2773 145.102 28.8685H150.315C150.936 31.6425 153.137 33.0777 156.341 33.0777C159.306 33.0777 161.028 31.739 161.028 29.8259C161.028 28.2474 159.881 27.2916 156.915 26.4775L153.567 25.5201C148.736 24.1331 145.866 21.7888 145.866 17.2931C145.866 11.7451 150.267 8.63644 155.766 8.63644C161.266 8.63644 166.001 12.223 166.959 17.0549L167.102 17.7725H161.506L161.363 17.3896C160.55 15.2367 158.637 13.8497 155.863 13.8497L155.864 13.8513ZM144.952 14.8709C144.952 14.8709 143.719 14.4724 142.089 14.4724C137.64 14.4724 134.82 17.3305 134.82 21.9693V37.7057H128.506V9.24977H134.82V12.5982C136.638 9.96739 139.124 8.63955 142.138 8.63955C143.576 8.63955 144.952 9.07075 144.952 9.07075V14.874V14.8709ZM91.1037 12.7305C88.5679 10.1059 85.0296 8.62554 81.3465 8.62554C77.6634 8.62554 74.315 10.2009 72.019 13.1119V9.24665H65.7051V48H72.019V33.9215C74.3633 36.7375 77.5669 38.3113 81.3465 38.3113C88.8544 38.3113 95.12 32.3928 95.12 23.47C95.12 19.2685 93.6847 15.4515 91.1037 12.7305ZM80.4374 32.4411C75.5588 32.4411 72.019 28.7191 72.019 23.47C72.019 18.2209 75.5588 14.4973 80.3892 14.4973C85.2195 14.4973 88.8077 18.3625 88.8077 23.47C88.8077 28.5774 85.3627 32.4411 80.4374 32.4411ZM61.8788 37.7057H55.47V35.1824C53.6518 37.1905 51.0693 38.291 47.9606 38.291C41.695 38.291 37.0078 33.9868 37.0078 26.9554V15.3208H43.4167V26.2393C43.4167 30.6867 46.1907 32.4099 49.3476 32.4099C53.1256 32.4099 55.47 29.7792 55.47 25.5699V9.24821H61.8788V37.7073V37.7057ZM34.5966 27.8925C35.0589 34.608 29.0922 38.3331 24.4844 38.3222C22.2786 38.3175 19.8673 37.4473 17.8608 36.0525L14.6712 33.839C12.2038 32.1546 11.4971 31.8651 10.5662 31.862C8.31216 31.8558 6.852 33.4358 6.99366 35.4984C7.04347 36.2176 7.06993 36.7935 7.71751 37.659L0.86971 37.6419C0.362235 36.6814 0.0882602 35.5295 0.01821 34.5223C-0.308691 29.7745 3.79625 25.324 9.87194 25.338C12.372 25.3442 14.9716 26.1179 17.0342 27.6092L21.5703 30.8813C22.4436 31.4588 23.1488 31.7483 24.1295 31.7515C26.972 31.7577 27.976 29.267 27.864 27.6356C27.7908 26.5802 27.2351 25.6197 26.3073 24.9457L17.3284 18.3532C14.8019 16.5241 13.2748 13.5477 13.06 10.4297C12.5992 3.71424 18.5644 -0.0108729 23.1721 2.38389e-05C25.3779 0.00469385 27.7892 0.874874 29.7958 2.26965L32.9854 4.48324C35.4527 6.16756 36.1595 6.4571 37.0903 6.45866C39.3444 6.46488 40.543 4.88486 40.4014 2.82227C40.3516 2.10309 40.3251 1.52712 39.6775 0.661609L46.5253 0.678733C47.0328 1.6392 48.0338 7.51875 43.8899 10.8687C38.3014 15.3862 32.6819 12.2028 30.6208 10.7099L26.0847 7.4378C25.2114 6.86028 24.5062 6.57074 23.5255 6.56762C20.683 6.5614 19.679 9.05207 19.7879 10.6352C19.8611 11.6906 20.4199 12.6994 21.2995 13.3718L30.3266 19.9643C32.85 21.7452 34.3833 24.818 34.595 27.8878L34.5966 27.8925Z" fill="white"/>
</svg>
